<svg width="122" height="88" viewBox="0 0 122 88" fill="none" xmlns="http://www.w3.org/2000/svg">
<g id="Cor=Azul">
<g id="Vector">
<path fill-rule="evenodd" clip-rule="evenodd" d="M60.9216 4.15184C60.2709 4.17481 59.6295 4.48382 59.2266 5.07885L38.9428 35.0333C37.8548 36.64 39.0424 38.7764 41.0235 38.7764C41.8575 38.7764 42.6361 38.3712 43.0975 37.697L61 11.539L78.9025 37.697C79.3639 38.3712 80.1425 38.7764 80.9765 38.7764C82.9576 38.7764 84.1452 36.64 83.0572 35.0333L62.7734 5.07885C62.3705 4.48382 61.7291 4.17481 61.0784 4.15184C61.0262 4.14999 60.9738 4.14999 60.9216 4.15184ZM61 19.0408L75.3399 39.9933C76.5939 41.8255 78.7099 42.9268 80.9765 42.9268C86.3607 42.9268 89.5883 37.1205 86.6314 32.7539L66.3476 2.79951C63.82 -0.933186 58.18 -0.933158 55.6524 2.79952L35.3686 32.7539C32.4117 37.1206 35.6393 42.9268 41.0235 42.9268C43.2901 42.9268 45.4061 41.8256 46.6601 39.9933L61 19.0408Z" fill="#104D5E"/>
<path d="M109.158 87.5951V87.9643H106.173V83.7371H109.102V84.1062H106.611V85.6304H108.782V85.9817H106.611V87.5951H109.158Z" fill="#104D5E"/>
<path d="M98.8992 85.8209C98.8992 85.5629 98.9451 85.3109 99.0368 85.0648C99.1328 84.8147 99.2704 84.5885 99.4498 84.3861C99.6292 84.1797 99.8503 84.0169 100.113 83.8979C100.376 83.7748 100.674 83.7133 101.008 83.7133C101.404 83.7133 101.742 83.8006 102.021 83.9753C102.305 84.1459 102.514 84.3662 102.647 84.6361L102.303 84.8385C102.207 84.652 102.086 84.5051 101.94 84.398C101.794 84.2868 101.638 84.2075 101.471 84.1598C101.308 84.1122 101.145 84.0884 100.983 84.0884C100.716 84.0884 100.48 84.14 100.276 84.2432C100.071 84.3424 99.8982 84.4774 99.7564 84.648C99.6188 84.8147 99.5145 85.0033 99.4436 85.2136C99.3726 85.42 99.3372 85.6304 99.3372 85.8447C99.3372 86.0789 99.3789 86.3032 99.4623 86.5175C99.5458 86.7318 99.6626 86.9224 99.8127 87.0891C99.9629 87.2518 100.138 87.3828 100.338 87.482C100.543 87.5773 100.764 87.6249 101.002 87.6249C101.168 87.6249 101.339 87.5971 101.515 87.5416C101.69 87.486 101.853 87.4007 102.003 87.2856C102.157 87.1704 102.28 87.0216 102.372 86.839L102.735 87.0176C102.643 87.228 102.501 87.4066 102.309 87.5535C102.117 87.7003 101.903 87.8115 101.665 87.8869C101.431 87.9623 101.202 88 100.977 88C100.672 88 100.393 87.9385 100.138 87.8154C99.8836 87.6884 99.6626 87.5217 99.4748 87.3153C99.2913 87.105 99.1495 86.8708 99.0494 86.6128C98.9493 86.3508 98.8992 86.0869 98.8992 85.8209Z" fill="#104D5E"/>
<path d="M93.5878 87.994C93.2374 87.994 92.9412 87.9345 92.6993 87.8154C92.4573 87.6964 92.2654 87.5376 92.1236 87.3391C91.9818 87.1367 91.8775 86.9085 91.8108 86.6544C91.7482 86.4004 91.7169 86.1384 91.7169 85.8685V83.7371H92.1487V85.8685C92.1487 86.0868 92.1716 86.3012 92.2175 86.5116C92.2675 86.7219 92.3468 86.9105 92.4552 87.0772C92.5637 87.2439 92.7097 87.3768 92.8932 87.4761C93.0768 87.5713 93.3062 87.6189 93.5815 87.6189C93.8652 87.6189 94.0988 87.5693 94.2823 87.4701C94.47 87.3669 94.616 87.2319 94.7203 87.0652C94.8287 86.8985 94.9059 86.712 94.9518 86.5056C94.9977 86.2952 95.0206 86.0829 95.0206 85.8685V83.7371H95.4586V85.8685C95.4586 86.1504 95.4253 86.4203 95.3585 86.6783C95.2918 86.9363 95.1833 87.1625 95.0331 87.357C94.8872 87.5515 94.6953 87.7063 94.4575 87.8214C94.2197 87.9365 93.9298 87.994 93.5878 87.994Z" fill="#104D5E"/>
<path d="M84.6161 87.9643V83.7371H86.124C86.5954 83.7371 86.9875 83.8324 87.3004 84.0229C87.6174 84.2094 87.8552 84.4634 88.0137 84.785C88.1722 85.1025 88.2514 85.4557 88.2514 85.8447C88.2514 86.2734 88.1638 86.6465 87.9886 86.964C87.8176 87.2816 87.5715 87.5277 87.2503 87.7023C86.9333 87.8769 86.5579 87.9643 86.124 87.9643H84.6161ZM87.8134 85.8447C87.8134 85.5073 87.7467 85.2077 87.6132 84.9457C87.4839 84.6837 87.2941 84.4793 87.0438 84.3325C86.7935 84.1816 86.487 84.1062 86.124 84.1062H85.0541V87.5951H86.124C86.4911 87.5951 86.7998 87.5177 87.0501 87.3629C87.3004 87.2081 87.4902 86.9998 87.6195 86.7378C87.7488 86.4719 87.8134 86.1742 87.8134 85.8447Z" fill="#104D5E"/>
<path d="M79.0162 87.994C78.7034 87.994 78.4197 87.9345 78.1653 87.8154C77.9108 87.6964 77.6918 87.5356 77.5083 87.3332C77.3248 87.1268 77.1829 86.8966 77.0828 86.6425C76.9827 86.3845 76.9326 86.1206 76.9326 85.8507C76.9326 85.5689 76.9848 85.3009 77.0891 85.0469C77.1934 84.7889 77.3393 84.5607 77.5271 84.3622C77.7189 84.1598 77.9421 84.001 78.1966 83.8859C78.451 83.7669 78.7263 83.7073 79.0225 83.7073C79.3353 83.7073 79.619 83.7688 79.8735 83.8919C80.1279 84.0149 80.3448 84.1797 80.5242 84.3861C80.7077 84.5925 80.8495 84.8227 80.9497 85.0767C81.0498 85.3307 81.0998 85.5907 81.0998 85.8566C81.0998 86.1384 81.0477 86.4083 80.9434 86.6663C80.8391 86.9204 80.6931 87.1486 80.5054 87.351C80.3177 87.5495 80.0966 87.7063 79.8422 87.8214C79.5877 87.9365 79.3124 87.994 79.0162 87.994ZM77.3706 85.8507C77.3706 86.0809 77.4103 86.3032 77.4895 86.5175C77.5688 86.7279 77.6814 86.9164 77.8274 87.0831C77.9734 87.2458 78.1465 87.3768 78.3467 87.4761C78.5511 87.5713 78.7743 87.6189 79.0162 87.6189C79.2707 87.6189 79.498 87.5693 79.6982 87.4701C79.9026 87.3669 80.0758 87.2319 80.2176 87.0652C80.3636 86.8946 80.4741 86.7041 80.5492 86.4937C80.6243 86.2833 80.6618 86.069 80.6618 85.8507C80.6618 85.6205 80.6222 85.4002 80.5429 85.1898C80.4637 84.9794 80.349 84.7909 80.1988 84.6242C80.0528 84.4575 79.8797 84.3265 79.6795 84.2313C79.4793 84.136 79.2582 84.0884 79.0162 84.0884C78.766 84.0884 78.5386 84.138 78.3342 84.2372C78.134 84.3364 77.9609 84.4714 77.8149 84.6421C77.6731 84.8088 77.5625 84.9973 77.4833 85.2077C77.4082 85.418 77.3706 85.6324 77.3706 85.8507Z" fill="#104D5E"/>
<path d="M70.4484 87.9643V83.7371H72.3255C72.5173 83.7371 72.6926 83.7748 72.8511 83.8502C73.0096 83.9256 73.1472 84.0288 73.264 84.1598C73.385 84.2868 73.4768 84.4297 73.5393 84.5885C73.6061 84.7433 73.6394 84.902 73.6394 85.0648C73.6394 85.2672 73.5977 85.4577 73.5143 85.6363C73.4351 85.815 73.3203 85.9658 73.1702 86.0888C73.0242 86.2119 72.8511 86.2932 72.6508 86.3329L73.7396 87.9643H73.2452L72.2003 86.4044H70.8864V87.9643H70.4484ZM70.8864 86.0352H72.338C72.5132 86.0352 72.6654 85.9896 72.7947 85.8983C72.924 85.807 73.0242 85.6879 73.0951 85.5411C73.166 85.3903 73.2015 85.2315 73.2015 85.0648C73.2015 84.8941 73.1597 84.7373 73.0763 84.5944C72.9971 84.4476 72.8886 84.3305 72.7509 84.2432C72.6175 84.1519 72.4673 84.1062 72.3004 84.1062H70.8864V86.0352Z" fill="#104D5E"/>
<path d="M63.8655 87.9643V83.7371H65.7051C65.897 83.7371 66.0722 83.7748 66.2307 83.8502C66.3933 83.9256 66.5331 84.0288 66.6499 84.1598C66.7667 84.2868 66.8585 84.4297 66.9252 84.5885C66.9919 84.7433 67.0253 84.902 67.0253 85.0648C67.0253 85.295 66.9711 85.5133 66.8626 85.7197C66.7583 85.9221 66.6103 86.0868 66.4184 86.2139C66.2265 86.3409 66.0012 86.4044 65.7426 86.4044H64.3035V87.9643H63.8655ZM64.3035 86.0352H65.7239C65.899 86.0352 66.0513 85.9896 66.1806 85.8983C66.3099 85.807 66.41 85.6879 66.4809 85.5411C66.5519 85.3942 66.5873 85.2355 66.5873 85.0648C66.5873 84.8901 66.5456 84.7294 66.4622 84.5825C66.3788 84.4357 66.2682 84.3206 66.1306 84.2372C65.9971 84.1499 65.849 84.1062 65.6863 84.1062H64.3035V86.0352Z" fill="#104D5E"/>
<path d="M54.194 87.994C53.8979 87.994 53.6225 87.9345 53.3681 87.8154C53.1136 87.6924 52.8926 87.5277 52.7048 87.3213C52.5171 87.1149 52.3711 86.8847 52.2669 86.6306C52.1667 86.3766 52.1167 86.1146 52.1167 85.8447C52.1167 85.559 52.1667 85.289 52.2669 85.035C52.3711 84.777 52.515 84.5488 52.6986 84.3503C52.8821 84.1519 53.099 83.9951 53.3493 83.88C53.5996 83.7649 53.8728 83.7073 54.169 83.7073C54.607 83.7073 54.9636 83.7927 55.2389 83.9633C55.5142 84.134 55.7228 84.3563 55.8646 84.6302L55.5268 84.8445C55.3849 84.5825 55.1951 84.39 54.9574 84.267C54.7196 84.1439 54.4547 84.0824 54.1627 84.0824C53.9166 84.0824 53.6935 84.132 53.4932 84.2313C53.2972 84.3305 53.1282 84.4635 52.9864 84.6302C52.8446 84.7969 52.7361 84.9854 52.661 85.1958C52.5901 85.4061 52.5547 85.6244 52.5547 85.8507C52.5547 86.0888 52.5964 86.3151 52.6798 86.5294C52.7632 86.7398 52.8821 86.9283 53.0365 87.095C53.1908 87.2578 53.3681 87.3867 53.5683 87.482C53.7727 87.5733 53.9917 87.6189 54.2253 87.6189C54.4964 87.6189 54.753 87.5555 54.9949 87.4284C55.2369 87.2974 55.4684 87.097 55.6894 86.8271V87.2677C55.2681 87.7519 54.7697 87.994 54.194 87.994ZM55.6206 86.2079H54.632V85.8864H55.9898V87.9643H55.6206V86.2079Z" fill="#104D5E"/>
<path d="M45.3249 84.5051V87.9643H44.8869V83.7371H45.2499L48.1656 87.2617V83.743H48.6036V87.9643H48.1969L45.3249 84.5051Z" fill="#104D5E"/>
<path d="M40.6444 87.9643V83.7371H41.0824V87.9643H40.6444Z" fill="#104D5E"/>
<path d="M33.4811 87.9643V83.7371H34.989C35.4604 83.7371 35.8525 83.8324 36.1653 84.0229C36.4823 84.2094 36.7201 84.4634 36.8786 84.785C37.0371 85.1025 37.1164 85.4557 37.1164 85.8447C37.1164 86.2734 37.0288 86.6465 36.8536 86.964C36.6826 87.2816 36.4365 87.5277 36.1153 87.7023C35.7982 87.8769 35.4228 87.9643 34.989 87.9643H33.4811ZM36.6784 85.8447C36.6784 85.5073 36.6117 85.2077 36.4782 84.9457C36.3489 84.6837 36.1591 84.4793 35.9088 84.3325C35.6585 84.1816 35.3519 84.1062 34.989 84.1062H33.9191V87.5951H34.989C35.3561 87.5951 35.6648 87.5177 35.915 87.3629C36.1653 87.2081 36.3551 86.9998 36.4844 86.7378C36.6137 86.4719 36.6784 86.1742 36.6784 85.8447Z" fill="#104D5E"/>
<path d="M27.9387 83.7371H28.3079L30.1537 87.9643H29.6907L29.115 86.6425H27.119L26.5496 87.9643H26.0804L27.9387 83.7371ZM29.0149 86.3151L28.1202 84.2253L27.2129 86.3151H29.0149Z" fill="#104D5E"/>
<path d="M19.8022 87.9643V83.7371H21.6793C21.8712 83.7371 22.0464 83.7748 22.2049 83.8502C22.3634 83.9256 22.501 84.0288 22.6178 84.1598C22.7388 84.2868 22.8306 84.4297 22.8931 84.5885C22.9599 84.7433 22.9932 84.902 22.9932 85.0648C22.9932 85.2672 22.9515 85.4577 22.8681 85.6363C22.7889 85.815 22.6741 85.9658 22.524 86.0888C22.378 86.2119 22.2049 86.2932 22.0046 86.3329L23.0934 87.9643H22.5991L21.5541 86.4044H20.2402V87.9643H19.8022ZM20.2402 86.0352H21.6918C21.867 86.0352 22.0192 85.9896 22.1486 85.8983C22.2779 85.807 22.378 85.6879 22.4489 85.5411C22.5198 85.3903 22.5553 85.2315 22.5553 85.0648C22.5553 84.8941 22.5135 84.7373 22.4301 84.5944C22.3509 84.4476 22.2424 84.3305 22.1048 84.2432C21.9713 84.1519 21.8211 84.1062 21.6542 84.1062H20.2402V86.0352Z" fill="#104D5E"/>
<path d="M16.4462 84.1062H14.8631V87.9643H14.4251V84.1062H12.8421V83.7371H16.4462V84.1062Z" fill="#104D5E"/>
<path d="M109.688 75.122V60.0976H116.423C117.124 60.0976 117.767 60.2386 118.354 60.5208C118.954 60.8029 119.469 61.1838 119.898 61.6635C120.341 62.1431 120.677 62.6792 120.906 63.2717C121.149 63.8642 121.271 64.4709 121.271 65.0916C121.271 65.7264 121.156 66.3401 120.928 66.9326C120.713 67.511 120.398 68.0189 119.984 68.4562C119.569 68.8935 119.083 69.2321 118.525 69.4719L122 75.122H118.74L115.608 70.0856H112.648V75.122H109.688ZM112.648 67.5251H116.359C116.731 67.5251 117.06 67.4193 117.346 67.2077C117.632 66.982 117.86 66.6857 118.032 66.3189C118.204 65.9521 118.289 65.543 118.289 65.0916C118.289 64.6119 118.189 64.1958 117.989 63.8431C117.789 63.4763 117.532 63.1871 117.217 62.9755C116.917 62.7639 116.588 62.6581 116.23 62.6581H112.648V67.5251Z" fill="#104D5E"/>
<path d="M90.8145 60.0976H93.8173L99.4154 75.122H96.3697L94.9541 71.3764H89.6348L88.2406 75.122H85.1949L90.8145 60.0976ZM94.4178 69.3238L92.3159 63.1236L90.1281 69.3238H94.4178Z" fill="#104D5E"/>
<path d="M64.8764 60.0976L68.9945 71.6515L73.0698 60.0976H76.1798L70.4101 75.122H67.5575L61.7663 60.0976H64.8764Z" fill="#104D5E"/>
<path d="M47.9221 75.122V60.0976H50.882V75.122H47.9221Z" fill="#104D5E"/>
<path d="M37.1697 62.6581H32.3009V75.122H29.3624V62.6581H24.4935V60.0976H37.1697V62.6581Z" fill="#104D5E"/>
<path d="M5.61956 60.0976H8.62238L14.2205 75.122H11.1748L9.75917 71.3764H4.43988L3.04572 75.122H0L5.61956 60.0976ZM9.22295 69.3238L7.12097 63.1236L4.9332 69.3238H9.22295Z" fill="#104D5E"/>
</g>
</g>
</svg>
