<svg width="161" height="30" viewBox="0 0 161 30" fill="none" xmlns="http://www.w3.org/2000/svg">
<path fill-rule="evenodd" clip-rule="evenodd" d="M19.3875 2.90157C18.9146 2.91762 18.4484 3.13358 18.1556 3.54943L3.41378 24.4835C2.62307 25.6063 3.48618 27.0994 4.926 27.0994C5.53212 27.0994 6.09798 26.8162 6.43333 26.345L19.4444 8.06421L32.4556 26.345C32.7909 26.8162 33.3568 27.0994 33.9629 27.0994C35.4027 27.0994 36.2658 25.6063 35.4751 24.4835L20.7333 3.54942C20.4405 3.13358 19.9743 2.91762 19.5014 2.90157C19.4635 2.90028 19.4254 2.90028 19.3875 2.90157ZM19.4444 13.3069L29.8663 27.9498C30.7777 29.2303 32.3156 30 33.9629 30C37.876 30 40.2217 25.9422 38.0727 22.8905L23.331 1.95648C21.4939 -0.65217 17.3949 -0.65215 15.5579 1.95648L0.816151 22.8905C-1.33284 25.9422 1.0129 30 4.926 30C6.57329 30 8.11118 29.2304 9.02258 27.9498L19.4444 13.3069Z" fill="#104D5E"/>
<path d="M137.912 26.6519V26.9694H135.229V23.3334H137.862V23.6509H135.623V24.9619H137.575V25.2641H135.623V26.6519H137.912Z" fill="#104D5E"/>
<path d="M128.691 25.1257C128.691 24.9038 128.732 24.687 128.814 24.4754C128.901 24.2603 129.024 24.0657 129.186 23.8915C129.347 23.714 129.546 23.574 129.782 23.4716C130.018 23.3658 130.286 23.3129 130.586 23.3129C130.942 23.3129 131.246 23.388 131.497 23.5382C131.752 23.685 131.94 23.8745 132.06 24.1066L131.75 24.2808C131.664 24.1203 131.555 23.994 131.424 23.9018C131.293 23.8062 131.152 23.7379 131.002 23.6969C130.856 23.656 130.71 23.6355 130.564 23.6355C130.324 23.6355 130.112 23.6799 129.928 23.7686C129.744 23.854 129.589 23.9701 129.461 24.1169C129.337 24.2603 129.244 24.4224 129.18 24.6034C129.116 24.7809 129.084 24.9619 129.084 25.1462C129.084 25.3476 129.122 25.5405 129.197 25.7249C129.272 25.9093 129.377 26.0731 129.512 26.2165C129.647 26.3565 129.804 26.4692 129.984 26.5545C130.168 26.6364 130.367 26.6774 130.58 26.6774C130.73 26.6774 130.884 26.6535 131.042 26.6057C131.199 26.5579 131.345 26.4845 131.48 26.3855C131.619 26.2865 131.73 26.1585 131.812 26.0014L132.138 26.1551C132.056 26.336 131.928 26.4896 131.756 26.616C131.584 26.7423 131.39 26.8379 131.177 26.9027C130.967 26.9676 130.76 27 130.558 27C130.284 27 130.033 26.9471 129.804 26.8413C129.576 26.732 129.377 26.5887 129.208 26.4111C129.043 26.2302 128.916 26.0287 128.826 25.8068C128.736 25.5815 128.691 25.3545 128.691 25.1257Z" fill="#104D5E"/>
<path d="M123.916 26.995C123.601 26.995 123.335 26.9438 123.117 26.8414C122.9 26.739 122.727 26.6024 122.6 26.4317C122.472 26.2576 122.379 26.0613 122.319 25.8428C122.262 25.6243 122.234 25.3989 122.234 25.1668V23.3334H122.622V25.1668C122.622 25.3546 122.643 25.5389 122.684 25.7199C122.729 25.9008 122.801 26.063 122.898 26.2064C122.995 26.3498 123.127 26.4641 123.292 26.5495C123.457 26.6314 123.663 26.6724 123.91 26.6724C124.165 26.6724 124.375 26.6297 124.54 26.5444C124.709 26.4556 124.84 26.3395 124.934 26.1961C125.032 26.0527 125.101 25.8923 125.142 25.7147C125.183 25.5338 125.204 25.3511 125.204 25.1668V23.3334H125.598V25.1668C125.598 25.4092 125.568 25.6413 125.508 25.8632C125.448 26.0852 125.35 26.2798 125.215 26.4471C125.084 26.6143 124.912 26.7475 124.698 26.8465C124.484 26.9455 124.224 26.995 123.916 26.995Z" fill="#104D5E"/>
<path d="M115.851 26.9694V23.3334H117.207C117.631 23.3334 117.983 23.4154 118.264 23.5792C118.549 23.7397 118.763 23.9582 118.905 24.2347C119.048 24.5079 119.119 24.8117 119.119 25.1463C119.119 25.515 119.04 25.8359 118.883 26.1091C118.729 26.3822 118.508 26.5939 118.219 26.7441C117.934 26.8943 117.597 26.9694 117.207 26.9694H115.851ZM118.725 25.1463C118.725 24.8561 118.665 24.5983 118.545 24.373C118.429 24.1477 118.259 23.9719 118.034 23.8455C117.809 23.7158 117.533 23.6509 117.207 23.6509H116.245V26.6519H117.207C117.537 26.6519 117.814 26.5853 118.039 26.4522C118.264 26.319 118.435 26.1398 118.551 25.9145C118.667 25.6857 118.725 25.4297 118.725 25.1463Z" fill="#104D5E"/>
<path d="M110.818 26.9949C110.536 26.9949 110.282 26.9436 110.053 26.8412C109.824 26.7388 109.627 26.6005 109.462 26.4264C109.297 26.2489 109.17 26.0509 109.08 25.8324C108.99 25.6105 108.945 25.3834 108.945 25.1513C108.945 24.9089 108.992 24.6784 109.085 24.4599C109.179 24.238 109.31 24.0417 109.479 23.871C109.652 23.6969 109.852 23.5603 110.081 23.4613C110.31 23.3589 110.557 23.3077 110.823 23.3077C111.105 23.3077 111.36 23.3606 111.588 23.4664C111.817 23.5723 112.012 23.714 112.173 23.8915C112.338 24.069 112.466 24.267 112.556 24.4855C112.646 24.704 112.691 24.9276 112.691 25.1564C112.691 25.3988 112.644 25.6309 112.55 25.8529C112.456 26.0714 112.325 26.2677 112.156 26.4418C111.988 26.6125 111.789 26.7473 111.56 26.8463C111.331 26.9454 111.084 26.9949 110.818 26.9949ZM109.338 25.1513C109.338 25.3493 109.374 25.5405 109.445 25.7248C109.517 25.9058 109.618 26.0679 109.749 26.2113C109.88 26.3513 110.036 26.464 110.216 26.5493C110.4 26.6313 110.6 26.6722 110.818 26.6722C111.046 26.6722 111.251 26.6296 111.431 26.5442C111.615 26.4554 111.77 26.3394 111.898 26.196C112.029 26.0492 112.128 25.8853 112.196 25.7043C112.263 25.5234 112.297 25.339 112.297 25.1513C112.297 24.9533 112.261 24.7638 112.19 24.5828C112.119 24.4019 112.016 24.2397 111.881 24.0963C111.75 23.9529 111.594 23.8403 111.414 23.7583C111.234 23.6764 111.035 23.6354 110.818 23.6354C110.593 23.6354 110.388 23.6781 110.205 23.7635C110.025 23.8488 109.869 23.9649 109.738 24.1117C109.61 24.2551 109.511 24.4172 109.44 24.5982C109.372 24.7791 109.338 24.9635 109.338 25.1513Z" fill="#104D5E"/>
<path d="M103.116 26.9694V23.3334H104.803C104.976 23.3334 105.133 23.3659 105.276 23.4307C105.418 23.4956 105.542 23.5844 105.647 23.697C105.756 23.8063 105.838 23.9292 105.894 24.0657C105.954 24.1989 105.984 24.3355 105.984 24.4754C105.984 24.6496 105.947 24.8134 105.872 24.9671C105.801 25.1207 105.698 25.2504 105.563 25.3563C105.431 25.4621 105.276 25.5321 105.096 25.5662L106.074 26.9694H105.63L104.691 25.6277H103.51V26.9694H103.116ZM103.51 25.3102H104.814C104.972 25.3102 105.109 25.2709 105.225 25.1924C105.341 25.1139 105.431 25.0114 105.495 24.8851C105.559 24.7554 105.591 24.6188 105.591 24.4754C105.591 24.3286 105.553 24.1938 105.478 24.0709C105.407 23.9446 105.309 23.8438 105.186 23.7687C105.066 23.6902 104.931 23.6509 104.781 23.6509H103.51V25.3102Z" fill="#104D5E"/>
<path d="M97.1987 26.9694V23.3334H98.8523C99.0248 23.3334 99.1822 23.3659 99.3247 23.4307C99.471 23.4956 99.5966 23.5844 99.7016 23.697C99.8066 23.8063 99.889 23.9292 99.949 24.0657C100.009 24.1989 100.039 24.3355 100.039 24.4754C100.039 24.6735 99.9903 24.8612 99.8928 25.0388C99.7991 25.2129 99.6659 25.3546 99.4935 25.4638C99.321 25.5731 99.1185 25.6277 98.886 25.6277H97.5924V26.9694H97.1987ZM97.5924 25.3102H98.8691C99.0266 25.3102 99.1635 25.2709 99.2797 25.1924C99.396 25.1139 99.486 25.0114 99.5497 24.8851C99.6134 24.7588 99.6453 24.6222 99.6453 24.4754C99.6453 24.3252 99.6078 24.1869 99.5328 24.0606C99.4578 23.9343 99.3585 23.8353 99.2347 23.7636C99.1147 23.6885 98.9816 23.6509 98.8354 23.6509H97.5924V25.3102Z" fill="#104D5E"/>
<path d="M88.5049 26.9949C88.2387 26.9949 87.9912 26.9436 87.7625 26.8412C87.5337 26.7354 87.335 26.5937 87.1663 26.4162C86.9975 26.2386 86.8663 26.0406 86.7726 25.8221C86.6826 25.6036 86.6376 25.3783 86.6376 25.1461C86.6376 24.9003 86.6826 24.6682 86.7726 24.4497C86.8663 24.2278 86.9957 24.0315 87.1607 23.8608C87.3256 23.6901 87.5206 23.5552 87.7456 23.4562C87.9706 23.3572 88.2162 23.3077 88.4824 23.3077C88.8761 23.3077 89.1967 23.3811 89.4442 23.5279C89.6917 23.6747 89.8791 23.8659 90.0066 24.1014L89.7029 24.2858C89.5754 24.0605 89.4048 23.8949 89.1911 23.7891C88.9774 23.6832 88.7393 23.6303 88.4768 23.6303C88.2555 23.6303 88.0549 23.673 87.875 23.7583C87.6987 23.8437 87.5469 23.9581 87.4194 24.1014C87.2919 24.2448 87.1944 24.407 87.1269 24.5879C87.0632 24.7689 87.0313 24.9567 87.0313 25.1513C87.0313 25.3561 87.0688 25.5507 87.1438 25.7351C87.2188 25.916 87.3256 26.0782 87.4644 26.2216C87.6031 26.3615 87.7625 26.4725 87.9425 26.5544C88.1262 26.633 88.323 26.6722 88.533 26.6722C88.7767 26.6722 89.0074 26.6176 89.2248 26.5084C89.4423 26.3957 89.6504 26.2233 89.8492 25.9911V26.3701C89.4704 26.7866 89.0224 26.9949 88.5049 26.9949ZM89.7873 25.4585H88.8986V25.182H90.1191V26.9692H89.7873V25.4585Z" fill="#104D5E"/>
<path d="M80.5324 23.9941V26.9694H80.1387V23.3334H80.4649L83.0859 26.3651V23.3386H83.4796V26.9694H83.114L80.5324 23.9941Z" fill="#104D5E"/>
<path d="M76.325 26.9694V23.3334H76.7187V26.9694H76.325Z" fill="#104D5E"/>
<path d="M69.8859 26.9694V23.3334H71.2414C71.6651 23.3334 72.0175 23.4154 72.2988 23.5792C72.5837 23.7397 72.7975 23.9582 72.94 24.2347C73.0824 24.5079 73.1537 24.8117 73.1537 25.1463C73.1537 25.515 73.0749 25.8359 72.9175 26.1091C72.7637 26.3822 72.5425 26.5939 72.2538 26.7441C71.9688 26.8943 71.6313 26.9694 71.2414 26.9694H69.8859ZM72.76 25.1463C72.76 24.8561 72.7 24.5983 72.58 24.373C72.4638 24.1477 72.2931 23.9719 72.0682 23.8455C71.8432 23.7158 71.5676 23.6509 71.2414 23.6509H70.2796V26.6519H71.2414C71.5713 26.6519 71.8488 26.5853 72.0738 26.4522C72.2988 26.319 72.4694 26.1398 72.5856 25.9145C72.7019 25.6857 72.76 25.4297 72.76 25.1463Z" fill="#104D5E"/>
<path d="M64.9037 23.3334H65.2356L66.8948 26.9694H66.4786L65.9611 25.8325H64.1669L63.6551 26.9694H63.2333L64.9037 23.3334ZM65.8712 25.5509L65.0669 23.7534L64.2513 25.5509H65.8712Z" fill="#104D5E"/>
<path d="M57.5898 26.9694V23.3334H59.2771C59.4496 23.3334 59.6071 23.3659 59.7496 23.4307C59.8921 23.4956 60.0158 23.5844 60.1208 23.697C60.2295 23.8063 60.312 23.9292 60.3683 24.0657C60.4283 24.1989 60.4583 24.3355 60.4583 24.4754C60.4583 24.6496 60.4208 24.8134 60.3458 24.9671C60.2745 25.1207 60.1714 25.2504 60.0364 25.3563C59.9052 25.4621 59.7496 25.5321 59.5696 25.5662L60.5483 26.9694H60.1039L59.1646 25.6277H57.9835V26.9694H57.5898ZM57.9835 25.3102H59.2884C59.4459 25.3102 59.5827 25.2709 59.699 25.1924C59.8152 25.1139 59.9052 25.0114 59.9689 24.8851C60.0327 24.7554 60.0646 24.6188 60.0646 24.4754C60.0646 24.3286 60.0271 24.1938 59.9521 24.0709C59.8808 23.9446 59.7833 23.8438 59.6596 23.7687C59.5396 23.6902 59.4046 23.6509 59.2546 23.6509H57.9835V25.3102Z" fill="#104D5E"/>
<path d="M54.573 23.6509H53.15V26.9694H52.7563V23.6509H51.3333V23.3334H54.573V23.6509Z" fill="#104D5E"/>
<path d="M149.933 15.9231V3H155.987C156.617 3 157.195 3.12134 157.722 3.36403C158.262 3.60672 158.725 3.93435 159.111 4.34691C159.509 4.75948 159.811 5.22059 160.017 5.73023C160.235 6.23987 160.344 6.76165 160.344 7.29556C160.344 7.8416 160.242 8.36945 160.036 8.87909C159.843 9.3766 159.56 9.81344 159.188 10.1896C158.815 10.5658 158.378 10.857 157.877 11.0633L161 15.9231H158.069L155.254 11.5911H152.594V15.9231H149.933ZM152.594 9.38873H155.929C156.263 9.38873 156.559 9.29773 156.816 9.11571C157.073 8.92156 157.279 8.66674 157.433 8.35125C157.587 8.03575 157.664 7.68386 157.664 7.29556C157.664 6.88299 157.575 6.52503 157.395 6.22167C157.215 5.90618 156.983 5.65742 156.7 5.47541C156.431 5.29339 156.135 5.20238 155.814 5.20238H152.594V9.38873Z" fill="#104D5E"/>
<path d="M132.967 3H135.666L140.698 15.9231H137.961L136.688 12.7014H131.907L130.653 15.9231H127.916L132.967 3ZM136.206 10.9359L134.317 5.60282L132.35 10.9359H136.206Z" fill="#104D5E"/>
<path d="M109.651 3L113.353 12.938L117.016 3H119.812L114.625 15.9231H112.061L106.855 3H109.651Z" fill="#104D5E"/>
<path d="M94.4109 15.9231V3H97.0716V15.9231H94.4109Z" fill="#104D5E"/>
<path d="M84.7454 5.20238H80.3687V15.9231H77.7273V5.20238H73.3506V3H84.7454V5.20238Z" fill="#104D5E"/>
<path d="M56.3848 3H59.084L64.1162 15.9231H61.3784L60.1059 12.7014H55.3244L54.0711 15.9231H51.3333L56.3848 3ZM59.6239 10.9359L57.7344 5.60282L55.7678 10.9359H59.6239Z" fill="#104D5E"/>
</svg>
