<svg width="144" height="104" viewBox="0 0 144 104" fill="none" xmlns="http://www.w3.org/2000/svg">
<path fill-rule="evenodd" clip-rule="evenodd" d="M71.9074 4.90672C71.1395 4.93387 70.3824 5.29906 69.9068 6.00228L45.9652 41.403C44.6811 43.3018 46.0828 45.8266 48.4212 45.8266C49.4055 45.8266 50.3245 45.3477 50.8692 44.551L72 13.637L93.1308 44.551C93.6755 45.3477 94.5945 45.8266 95.5788 45.8266C97.9172 45.8266 99.3189 43.3018 98.0348 41.403L74.0932 6.00228C73.6176 5.29905 72.8605 4.93387 72.0926 4.90672C72.0309 4.90453 71.9691 4.90453 71.9074 4.90672ZM72 22.5028L88.9257 47.2648C90.4059 49.4302 92.9035 50.7317 95.5788 50.7317C101.934 50.7317 105.744 43.8697 102.253 38.7092L78.3119 3.30852C75.3285 -1.10286 68.6715 -1.10282 65.6881 3.30852L41.7465 38.7092C38.2564 43.8697 42.0661 50.7317 48.4212 50.7317C51.0965 50.7317 53.5941 49.4302 55.0743 47.2648L72 22.5028Z" fill="white"/>
<path d="M128.842 103.522V103.958H125.319V98.962H128.776V99.3983H125.836V101.2H128.399V101.615H125.836V103.522H128.842Z" fill="white"/>
<path d="M116.733 101.425C116.733 101.12 116.788 100.822 116.896 100.531C117.009 100.236 117.172 99.9682 117.383 99.729C117.595 99.485 117.856 99.2927 118.166 99.152C118.476 99.0066 118.828 98.9339 119.222 98.9339C119.69 98.9339 120.089 99.0371 120.419 99.2435C120.754 99.4452 121 99.7055 121.157 100.024L120.751 100.264C120.638 100.043 120.495 99.8697 120.323 99.743C120.15 99.6117 119.966 99.5179 119.769 99.4616C119.577 99.4053 119.385 99.3772 119.193 99.3772C118.878 99.3772 118.599 99.4381 118.358 99.5601C118.117 99.6774 117.913 99.8369 117.745 100.039C117.583 100.236 117.46 100.458 117.376 100.707C117.292 100.951 117.25 101.2 117.25 101.453C117.25 101.73 117.3 101.995 117.398 102.248C117.497 102.501 117.634 102.726 117.812 102.923C117.989 103.116 118.196 103.271 118.432 103.388C118.673 103.5 118.934 103.557 119.215 103.557C119.412 103.557 119.614 103.524 119.821 103.458C120.027 103.393 120.219 103.292 120.397 103.156C120.579 103.02 120.724 102.844 120.832 102.628L121.261 102.839C121.152 103.088 120.985 103.299 120.758 103.472C120.532 103.646 120.278 103.777 119.998 103.866C119.722 103.955 119.451 104 119.185 104C118.826 104 118.496 103.927 118.196 103.782C117.895 103.632 117.634 103.435 117.413 103.191C117.196 102.942 117.029 102.665 116.911 102.361C116.793 102.051 116.733 101.739 116.733 101.425Z" fill="white"/>
<path d="M110.464 103.993C110.051 103.993 109.701 103.923 109.416 103.782C109.13 103.641 108.903 103.453 108.736 103.219C108.569 102.98 108.446 102.71 108.367 102.41C108.293 102.11 108.256 101.8 108.256 101.481V98.962H108.766V101.481C108.766 101.739 108.793 101.992 108.847 102.241C108.906 102.49 108.999 102.712 109.128 102.909C109.256 103.106 109.428 103.264 109.644 103.381C109.861 103.493 110.132 103.55 110.457 103.55C110.792 103.55 111.067 103.491 111.284 103.374C111.506 103.252 111.678 103.092 111.801 102.895C111.929 102.698 112.02 102.478 112.074 102.234C112.128 101.985 112.155 101.734 112.155 101.481V98.962H112.672V101.481C112.672 101.814 112.633 102.133 112.554 102.438C112.476 102.743 112.348 103.01 112.17 103.24C111.998 103.47 111.771 103.653 111.491 103.789C111.21 103.925 110.868 103.993 110.464 103.993Z" fill="white"/>
<path d="M99.8747 103.958V98.962H101.655C102.211 98.962 102.674 99.0746 103.043 99.2998C103.417 99.5202 103.698 99.8204 103.885 100.2C104.072 100.576 104.166 100.993 104.166 101.453C104.166 101.959 104.062 102.4 103.855 102.776C103.654 103.151 103.363 103.442 102.984 103.648C102.61 103.855 102.167 103.958 101.655 103.958H99.8747ZM103.649 101.453C103.649 101.054 103.57 100.7 103.412 100.39C103.26 100.081 103.036 99.8392 102.74 99.6656C102.445 99.4874 102.083 99.3983 101.655 99.3983H100.392V103.522H101.655C102.088 103.522 102.452 103.43 102.748 103.247C103.043 103.064 103.267 102.818 103.42 102.508C103.572 102.194 103.649 101.842 103.649 101.453Z" fill="white"/>
<path d="M93.2651 103.993C92.8958 103.993 92.561 103.923 92.2607 103.782C91.9603 103.641 91.7018 103.451 91.4852 103.212C91.2686 102.968 91.1012 102.696 90.983 102.396C90.8648 102.091 90.8057 101.779 90.8057 101.46C90.8057 101.127 90.8673 100.81 90.9904 100.51C91.1135 100.205 91.2858 99.9354 91.5073 99.7008C91.7338 99.4616 91.9972 99.2739 92.2976 99.1379C92.5979 98.9972 92.9229 98.9268 93.2724 98.9268C93.6417 98.9268 93.9765 98.9995 94.2769 99.145C94.5772 99.2904 94.8332 99.485 95.0449 99.729C95.2616 99.9729 95.429 100.245 95.5471 100.545C95.6653 100.845 95.7244 101.153 95.7244 101.467C95.7244 101.8 95.6628 102.119 95.5398 102.424C95.4167 102.724 95.2443 102.994 95.0228 103.233C94.8012 103.468 94.5403 103.653 94.2399 103.789C93.9396 103.925 93.6146 103.993 93.2651 103.993ZM91.3227 101.46C91.3227 101.732 91.3695 101.995 91.463 102.248C91.5566 102.497 91.6895 102.719 91.8619 102.916C92.0342 103.109 92.2385 103.264 92.4748 103.381C92.7161 103.493 92.9795 103.55 93.2651 103.55C93.5654 103.55 93.8337 103.491 94.0701 103.374C94.3113 103.252 94.5156 103.092 94.683 102.895C94.8554 102.694 94.9858 102.468 95.0745 102.22C95.1631 101.971 95.2074 101.718 95.2074 101.46C95.2074 101.188 95.1606 100.927 95.0671 100.679C94.9735 100.43 94.8381 100.207 94.6609 100.01C94.4886 99.8134 94.2842 99.6586 94.0479 99.546C93.8116 99.4334 93.5506 99.3772 93.2651 99.3772C92.9697 99.3772 92.7013 99.4358 92.4601 99.5531C92.2237 99.6703 92.0194 99.8298 91.8471 100.032C91.6797 100.229 91.5492 100.451 91.4557 100.7C91.367 100.949 91.3227 101.202 91.3227 101.46Z" fill="white"/>
<path d="M83.1522 103.958V98.962H85.3678C85.5942 98.962 85.801 99.0066 85.9881 99.0957C86.1752 99.1848 86.3377 99.3068 86.4756 99.4616C86.6183 99.6117 86.7267 99.7806 86.8005 99.9682C86.8793 100.151 86.9187 100.339 86.9187 100.531C86.9187 100.77 86.8695 100.995 86.771 101.207C86.6774 101.418 86.542 101.596 86.3648 101.741C86.1925 101.887 85.9881 101.983 85.7518 102.03L87.0368 103.958H86.4534L85.2201 102.114H83.6691V103.958H83.1522ZM83.6691 101.678H85.3825C85.5893 101.678 85.769 101.624 85.9217 101.516C86.0743 101.408 86.1925 101.268 86.2762 101.094C86.3599 100.916 86.4017 100.728 86.4017 100.531C86.4017 100.329 86.3525 100.144 86.254 99.9752C86.1605 99.8017 86.0324 99.6633 85.87 99.5601C85.7124 99.4522 85.5352 99.3983 85.3382 99.3983H83.6691V101.678Z" fill="white"/>
<path d="M75.3822 103.958V98.962H77.5535C77.78 98.962 77.9868 99.0066 78.1739 99.0957C78.3659 99.1848 78.5309 99.3068 78.6687 99.4616C78.8066 99.6117 78.9149 99.7806 78.9937 99.9682C79.0725 100.151 79.1118 100.339 79.1118 100.531C79.1118 100.803 79.0478 101.061 78.9198 101.305C78.7967 101.544 78.6219 101.739 78.3955 101.889C78.169 102.039 77.9031 102.114 77.5978 102.114H75.8992V103.958H75.3822ZM75.8992 101.678H77.5757C77.7825 101.678 77.9622 101.624 78.1148 101.516C78.2675 101.408 78.3856 101.268 78.4693 101.094C78.553 100.92 78.5949 100.733 78.5949 100.531C78.5949 100.325 78.5456 100.135 78.4472 99.9612C78.3487 99.7876 78.2182 99.6516 78.0557 99.5531C77.8982 99.4499 77.7234 99.3983 77.5314 99.3983H75.8992V101.678Z" fill="white"/>
<path d="M63.9667 103.993C63.6171 103.993 63.2922 103.923 62.9918 103.782C62.6915 103.636 62.4306 103.442 62.209 103.198C61.9874 102.954 61.8151 102.682 61.692 102.382C61.5739 102.081 61.5148 101.772 61.5148 101.453C61.5148 101.115 61.5739 100.796 61.692 100.496C61.8151 100.191 61.985 99.9213 62.2016 99.6867C62.4182 99.4522 62.6743 99.2669 62.9697 99.1309C63.2651 98.9949 63.5876 98.9268 63.9372 98.9268C64.4541 98.9268 64.8751 99.0277 65.2001 99.2294C65.525 99.4311 65.7712 99.6938 65.9386 100.017L65.5398 100.271C65.3724 99.9612 65.1484 99.7337 64.8677 99.5882C64.5871 99.4428 64.2744 99.3701 63.9298 99.3701C63.6393 99.3701 63.3759 99.4288 63.1395 99.546C62.9081 99.6633 62.7087 99.8204 62.5413 100.017C62.3739 100.214 62.2459 100.437 62.1573 100.686C62.0736 100.935 62.0317 101.193 62.0317 101.46C62.0317 101.741 62.081 102.009 62.1795 102.262C62.2779 102.511 62.4182 102.733 62.6004 102.93C62.7826 103.123 62.9918 103.275 63.2282 103.388C63.4694 103.496 63.7279 103.55 64.0036 103.55C64.3237 103.55 64.6265 103.475 64.912 103.325C65.1976 103.17 65.4709 102.933 65.7318 102.614V103.135C65.2345 103.707 64.6462 103.993 63.9667 103.993ZM65.6506 101.882H64.4837V101.502H66.0863V103.958H65.6506V101.882Z" fill="white"/>
<path d="M53.4983 99.8697V103.958H52.9813V98.962H53.4097L56.8512 103.127V98.969H57.3682V103.958H56.8882L53.4983 99.8697Z" fill="white"/>
<path d="M47.9737 103.958V98.962H48.4907V103.958H47.9737Z" fill="white"/>
<path d="M39.5186 103.958V98.962H41.2985C41.8549 98.962 42.3177 99.0746 42.6869 99.2998C43.0611 99.5202 43.3418 99.8204 43.5289 100.2C43.716 100.576 43.8095 100.993 43.8095 101.453C43.8095 101.959 43.7061 102.4 43.4993 102.776C43.2975 103.151 43.007 103.442 42.6279 103.648C42.2537 103.855 41.8105 103.958 41.2985 103.958H39.5186ZM43.2925 101.453C43.2925 101.054 43.2138 100.7 43.0562 100.39C42.9036 100.081 42.6796 99.8392 42.3841 99.6656C42.0887 99.4874 41.7268 99.3983 41.2985 99.3983H40.0356V103.522H41.2985C41.7318 103.522 42.0961 103.43 42.3915 103.247C42.6869 103.064 42.911 102.818 43.0636 102.508C43.2162 102.194 43.2925 101.842 43.2925 101.453Z" fill="white"/>
<path d="M32.9768 98.962H33.4126L35.5912 103.958H35.0447L34.3653 102.396H32.0093L31.3373 103.958H30.7834L32.9768 98.962ZM34.2471 102.009L33.191 99.539L32.1201 102.009H34.2471Z" fill="white"/>
<path d="M23.373 103.958V98.962H25.5886C25.8151 98.962 26.0219 99.0066 26.209 99.0957C26.3961 99.1848 26.5586 99.3068 26.6965 99.4616C26.8392 99.6117 26.9476 99.7806 27.0214 99.9682C27.1002 100.151 27.1396 100.339 27.1396 100.531C27.1396 100.77 27.0903 100.995 26.9919 101.207C26.8983 101.418 26.7629 101.596 26.5857 101.741C26.4133 101.887 26.209 101.983 25.9727 102.03L27.2577 103.958H26.6743L25.4409 102.114H23.89V103.958H23.373ZM23.89 101.678H25.6034C25.8102 101.678 25.9899 101.624 26.1425 101.516C26.2952 101.408 26.4133 101.268 26.497 101.094C26.5807 100.916 26.6226 100.728 26.6226 100.531C26.6226 100.329 26.5734 100.144 26.4749 99.9752C26.3813 99.8017 26.2533 99.6633 26.0909 99.5601C25.9333 99.4522 25.7561 99.3983 25.5591 99.3983H23.89V101.678Z" fill="white"/>
<path d="M19.4119 99.3983H17.5434V103.958H17.0264V99.3983H15.1579V98.962H19.4119V99.3983Z" fill="white"/>
<path d="M129.468 88.7805V71.0244H137.418C138.245 71.0244 139.004 71.1911 139.696 71.5246C140.405 71.858 141.013 72.3082 141.519 72.875C142.042 73.4419 142.439 74.0754 142.709 74.7757C142.996 75.4759 143.139 76.1928 143.139 76.9264C143.139 77.6767 143.004 78.4019 142.734 79.1022C142.481 79.7857 142.11 80.3859 141.62 80.9028C141.131 81.4196 140.557 81.8198 139.899 82.1032L144 88.7805H140.152L136.456 82.8284H132.962V88.7805H129.468ZM132.962 79.8024H137.342C137.781 79.8024 138.169 79.6774 138.506 79.4273C138.844 79.1605 139.114 78.8104 139.316 78.3769C139.519 77.9434 139.62 77.4599 139.62 76.9264C139.62 76.3596 139.502 75.8677 139.266 75.4509C139.03 75.0174 138.726 74.6756 138.354 74.4256C138 74.1755 137.612 74.0504 137.19 74.0504H132.962V79.8024Z" fill="white"/>
<path d="M107.191 71.0244H110.735L117.343 88.7805H113.748L112.077 84.354H105.798L104.153 88.7805H100.558L107.191 71.0244ZM111.444 81.9281L108.963 74.6006L106.381 81.9281H111.444Z" fill="white"/>
<path d="M76.5754 71.0244L81.4362 84.6791L86.2463 71.0244H89.9172L83.107 88.7805H79.7399L72.9045 71.0244H76.5754Z" fill="white"/>
<path d="M56.5638 88.7805V71.0244H60.0575V88.7805H56.5638Z" fill="white"/>
<path d="M43.8725 74.0504H38.1256V88.7805H34.6573V74.0504H28.9104V71.0244H43.8725V74.0504Z" fill="white"/>
<path d="M6.63293 71.0244H10.1772L16.7849 88.7805H13.1899L11.519 84.354H5.24052L3.59495 88.7805H0L6.63293 71.0244ZM10.8861 81.9281L8.40508 74.6006L5.8228 81.9281H10.8861Z" fill="white"/>
</svg>
